<?xml version="1.0" standalone="no"?>
<!DOCTYPE svg PUBLIC "-//W3C//DTD SVG 20010904//EN"
 "http://www.w3.org/TR/2001/REC-SVG-20010904/DTD/svg10.dtd">
<svg version="1.0" xmlns="http://www.w3.org/2000/svg"
 width="250.000000pt" height="250.000000pt" viewBox="0 0 250.000000 250.000000"
 preserveAspectRatio="xMidYMid meet">

<g transform="translate(0.000000,250.000000) scale(0.100000,-0.100000)"
fill="#000000" stroke="none">
<path d="M0 1250 l0 -1250 1250 0 1250 0 0 1250 0 1250 -1250 0 -1250 0 0
-1250z m375 411 c11 -5 28 -4 38 1 14 7 24 5 41 -11 13 -12 34 -24 47 -26 25
-5 49 -30 49 -50 0 -7 13 -24 30 -38 16 -15 33 -39 36 -54 4 -16 13 -36 21
-45 12 -13 12 -21 3 -39 -10 -17 -9 -30 0 -60 9 -27 10 -45 2 -67 -8 -23 -7
-35 4 -51 15 -21 15 -29 -14 -156 -11 -48 -42 -115 -54 -115 -5 0 -16 -16 -25
-35 -12 -24 -23 -35 -39 -35 -12 0 -41 -7 -64 -15 -83 -29 -212 -10 -272 41
-59 49 -138 183 -138 234 0 16 -4 39 -9 52 -6 15 -5 44 1 74 34 174 32 170 90
265 42 69 147 134 223 137 6 0 19 -3 30 -7z m1570 -6 c25 -5 65 -83 65 -126 0
-17 6 -32 15 -35 8 -4 15 -18 15 -34 0 -15 6 -30 14 -33 9 -4 12 -15 9 -32 -4
-16 1 -33 11 -44 13 -14 15 -30 10 -75 -8 -68 9 -76 43 -18 19 35 20 40 7 72
-14 32 -13 35 6 50 21 16 21 18 6 54 -22 52 -20 59 9 52 21 -5 25 -3 25 14 0
11 -7 23 -15 26 -23 9 -18 20 20 43 22 13 35 28 35 41 0 29 70 59 134 57 45
-2 50 -5 59 -30 8 -24 5 -33 -17 -56 l-27 -28 5 -224 c6 -300 12 -344 45 -369
46 -35 51 -40 51 -61 0 -28 -37 -39 -142 -41 -82 -2 -92 -1 -108 20 -22 27
-36 28 -49 5 -8 -14 -24 -18 -78 -19 -37 -1 -92 -7 -120 -13 -29 -7 -90 -11
-135 -9 -80 3 -83 4 -97 32 -13 29 -13 30 30 67 l44 37 -3 279 c-2 252 -4 279
-20 290 -40 28 -53 48 -50 78 3 29 6 30 58 36 51 5 97 3 145 -6z m-905 -24
c59 -14 76 -22 78 -38 4 -28 -35 -73 -64 -73 -17 0 -27 -8 -35 -27 -11 -30 -2
-130 13 -139 5 -3 30 14 56 38 83 76 112 136 76 156 -9 5 -14 17 -12 28 6 31
90 56 193 58 80 1 94 -2 123 -23 20 -15 32 -32 32 -47 0 -21 -5 -24 -39 -24
-22 0 -52 -5 -68 -11 -44 -16 -102 -59 -108 -81 -4 -10 -25 -37 -47 -59 -35
-35 -39 -43 -33 -72 3 -18 7 -50 8 -72 2 -39 3 -40 37 -40 35 0 35 0 32 -43
-2 -42 -2 -42 30 -40 30 3 33 0 38 -32 5 -32 8 -35 43 -38 30 -3 42 -10 55
-31 8 -15 41 -45 73 -65 68 -44 95 -78 75 -95 -7 -6 -82 -13 -175 -16 -126 -4
-177 -2 -231 11 -52 12 -74 13 -90 4 -11 -6 -76 -12 -147 -12 l-126 -2 -24 29
-25 28 56 52 c31 28 57 60 58 71 6 74 10 190 10 313 1 161 2 158 -81 203 -37
20 -41 54 -8 68 12 6 51 17 87 24 36 8 65 15 65 15 0 0 34 -8 75 -18z m240
-309 c0 -4 -7 -18 -16 -31 -21 -29 -41 -14 -25 18 11 20 41 30 41 13z"/>
<path d="M294 1570 c-39 -28 -64 -66 -64 -96 0 -9 -12 -36 -26 -60 -24 -40
-26 -51 -19 -102 4 -31 8 -74 10 -94 3 -49 58 -114 100 -119 24 -3 32 -11 41
-39 14 -42 24 -46 64 -25 20 10 42 14 60 10 25 -6 31 -2 46 27 9 18 25 41 34
50 23 22 31 88 26 208 -4 110 -8 123 -42 138 -13 7 -24 20 -24 29 -1 38 -27
65 -81 84 -72 24 -78 24 -125 -11z"/>
<path d="M2242 1323 c-1 -21 -4 -63 -7 -93 -3 -30 -7 -73 -8 -95 -4 -50 -15
-85 -28 -85 -6 0 -9 -15 -7 -32 4 -45 33 -50 41 -8 4 19 16 34 32 42 29 13 32
34 8 68 -16 22 -16 24 4 37 18 12 20 18 10 54 -7 28 -7 51 0 74 8 26 8 38 -4
54 -22 32 -39 26 -41 -16z"/>
<path d="M1930 1283 c0 -52 4 -72 14 -76 21 -8 27 17 16 75 -16 82 -30 83 -30
1z"/>
<path d="M1934 1145 c-13 -20 -14 -28 -4 -39 7 -10 9 -30 5 -59 -6 -38 -4 -47
16 -66 37 -34 80 -24 46 11 -7 7 -14 31 -15 53 -4 118 -5 125 -18 125 -7 0
-21 -11 -30 -25z"/>
<path d="M1036 1168 c-19 -27 -20 -53 -5 -116 14 -56 31 -78 82 -104 l39 -19
39 26 c38 25 39 26 25 53 -7 15 -21 44 -31 64 -9 21 -26 40 -36 43 -11 4 -34
22 -51 41 -37 40 -42 41 -62 12z"/>
</g>
</svg>
